<?xml version="1.0" encoding="utf-8"?><svg viewBox="0 0 502.66 502.66" xmlns="http://www.w3.org/2000/svg" xmlns:xlink="http://www.w3.org/1999/xlink"><style>:root>svg{display:none}:root>svg:target{display:block}</style><svg fill="none" viewBox="0 0 40 40" id="aple" xmlns="http://www.w3.org/2000/svg"><g opacity=".8"><circle cx="20" cy="20" r="20" fill="#000"/><g clip-path="url(#aclip0)" fill-rule="evenodd" clip-rule="evenodd"><path d="M22.319 8.943A6.076 6.076 0 0125.771 8c.52 0 1.065.082 1.522.124-.573 1.513-1.59 3.687-3.306 4.831a6.306 6.306 0 01-3.494.943c-.532 0-1.064-.081-1.482-.12.525-1.517 1.594-3.69 3.306-4.835z" fill="#B39141"/><path d="M29.42 23.2c-1.634 5.122-5.961 9.713-8.433 8.646-.15-.082-.306-.206-.492-.326a.628.628 0 00-.228-.162.586.586 0 00-.27-.044.578.578 0 00-.267.044.62.62 0 00-.225.162c-.187.12-.397.244-.532.326-2.385 1.067-6.756-3.524-8.393-8.646-1.709-5.341.684-7.66 2.964-8.684 2.385-1.068 4.403-.532 5.81 1.556l.04.038a.786.786 0 00.187.167.14.14 0 00.075.039c.1.076.22.12.342.124a.58.58 0 00.334-.124c.04 0 .04-.039.08-.039a.786.786 0 00.186-.167l.04-.038c1.406-2.088 3.417-2.624 5.774-1.556 2.356 1.067 4.716 3.343 3.008 8.684z" fill="#C4C4C4"/></g></g><defs><clipPath id="aclip0"><path fill="#fff" transform="translate(10 8)" d="M0 0h20v24H0z"/></clipPath></defs></svg><svg fill="none" viewBox="0 0 14 8" id="arrow-down-white" xmlns="http://www.w3.org/2000/svg"><path d="M2 0l5 5 5-5 2 1-7 7-7-7 2-1z" fill="#fff"/></svg><svg fill="none" viewBox="0 0 24 18" id="brief" xmlns="http://www.w3.org/2000/svg"><path fill-rule="evenodd" clip-rule="evenodd" d="M3.417 3.801C.694 7.351.134 13.341-.002 15.67a1.881 1.881 0 00.696 1.567 1.947 1.947 0 001.51.385l5.233-.73c3.07-.448 2.42-5.775 2.506-7.87.52-.515 1.126-1.285 1.99-2.1.904.896 1.641 1.67 2.206 2.239.086 2.054-.606 7.274 2.42 7.744l5.232.73a1.954 1.954 0 001.51-.385 1.873 1.873 0 00.693-1.58c-.086-2.31-.652-8.3-3.374-11.85-6.15-8.022-6.698-1.817-6.526 4.24-.692-.81-1.357-1.58-1.384-1.626l.045-4.534h-1.451l-.086 4.534c.086-.085-.56.645-1.298 1.455.154-6.016-.425-12.006-6.503-4.087z" fill="#B39141"/></svg><svg fill="none" viewBox="0 0 22 24" id="buttle" xmlns="http://www.w3.org/2000/svg"><g clip-path="url(#dclip0)"><path d="M20.616 19.198l-1.378-2.433c-1.244-2.086-3.212-5.466-4.457-7.571l-.965-1.7V4.172a2.09 2.09 0 001.473-.604 2.061 2.061 0 00.608-1.463 2.09 2.09 0 00-.6-1.472A2.12 2.12 0 0013.833 0H7.39a2.12 2.12 0 00-1.476.628 2.09 2.09 0 00-.448 2.269 2.062 2.062 0 001.127 1.119c.253.103.524.156.797.156v3.322l-.969 1.7a1553.39 1553.39 0 01-4.415 7.57L.63 19.199A4.043 4.043 0 000 21.246c-.007.385.083.766.261 1.108a2.52 2.52 0 001.19 1.21c.602.305 1.27.458 1.945.444h14.45a3.909 3.909 0 002.417-.738c.307-.246.55-.563.707-.923.178-.34.267-.719.261-1.101a4.08 4.08 0 00-.614-2.047z" fill="#C4C4C4"/><path d="M7.585 9.858l1.167-1.993V2.843H7.391a.75.75 0 01-.524-.217.74.74 0 01-.22-.52.745.745 0 01.453-.71.759.759 0 01.29-.063h6.442a.76.76 0 01.694.481.745.745 0 01.05.291.739.739 0 01-.22.52.75.75 0 01-.524.218h-1.338v5.022l1.167 1.993c.595.997 1.338 2.29 2.12 3.62H5.465c.778-1.33 1.525-2.623 2.12-3.62z" fill="#fff"/><path d="M9.071 17.982c.001-.294.12-.575.328-.783.21-.208.493-.325.789-.326.3 0 .59.115.807.322.218.206.346.488.36.787a1.117 1.117 0 01-.332.83 1.134 1.134 0 01-.835.329 1.111 1.111 0 01-1.05-.718 1.09 1.09 0 01-.067-.441zM6.543 16.224a1.176 1.176 0 01.718-1.108 1.197 1.197 0 011.305.24 1.18 1.18 0 01-.833 2.027 1.173 1.173 0 01-1.1-.71 1.152 1.152 0 01-.09-.449zM7.25 18.155a1.142 1.142 0 011.06.676 1.12 1.12 0 01-.22 1.232 1.138 1.138 0 01-1.229.273 1.134 1.134 0 01-.727-1.022 1.113 1.113 0 01.68-1.066c.137-.06.286-.091.436-.093z" fill="#B39141"/></g><defs><clipPath id="dclip0"><path fill="#fff" d="M0 0h21.231v24H0z"/></clipPath></defs></svg><svg fill="none" viewBox="0 0 22 20" id="hart" xmlns="http://www.w3.org/2000/svg"><path d="M20.633 4.647a6.093 6.093 0 00-1.334-1.94A6.219 6.219 0 0014.93.93 6.26 6.26 0 0011 2.315 6.26 6.26 0 007.07.93 6.219 6.219 0 002.7 2.706a6.057 6.057 0 00-1.825 4.33c0 .78.16 1.593.476 2.42.265.692.644 1.409 1.13 2.133.768 1.146 1.825 2.341 3.138 3.553a35.068 35.068 0 004.42 3.453l.556.356a.753.753 0 00.808 0l.556-.357a35.517 35.517 0 004.42-3.452c1.312-1.211 2.37-2.407 3.138-3.553.485-.724.867-1.441 1.13-2.133.316-.827.476-1.64.476-2.42a5.968 5.968 0 00-.49-2.39z" fill="#B39141"/></svg><svg fill="none" viewBox="0 0 24 24" id="head" xmlns="http://www.w3.org/2000/svg"><g clip-path="url(#fclip0)" fill-rule="evenodd" clip-rule="evenodd"><path d="M21.718 9.259a9.94 9.94 0 00-1.525-4.256 10.535 10.535 0 00-3.292-3.23A11.015 11.015 0 0012.09.113C7.34-.507 2.405 1.466.62 5.873-.92 9.714.565 13.443 3.301 16.32c1.006 1.016 1.125 2.995 1.125 4.29v2.658c0 .101.021.202.064.295a.734.734 0 00.183.245.78.78 0 00.585.192H15.36a.77.77 0 00.554-.171.671.671 0 00.248-.502l.117-.963c.622-2.488 4.352-.396 5.29-1.92.118-.113.479-1.076.243-1.076-2.2.23-1.728-2.706.174-1.577.833.508.236-1.471.236-1.471.298-.113 2.735-.45 1.423-1.637-1.777-1.696-2.014-2.488-2.076-2.653-.174-.85.243-1.92.18-2.771h-.03z" fill="#C4C4C4"/><path d="M18.15 4.727a2.74 2.74 0 00-.888-.591c-.119-.172-.237-.284-.36-.455-.536-.591-2.848-1.412-3.68-1.578a4.646 4.646 0 00-1.549.053 2.944 2.944 0 00-1.41-.17 2.892 2.892 0 00-1.318.507 2.843 2.843 0 00-1.848-.005c-.598.204-1.101.601-1.422 1.122a2.876 2.876 0 00-1.52.874 2.637 2.637 0 00-.68 1.56c-.827.45-1.244 1.69-1.424 2.594-.236 1.016.298 3.392 1.66 3.616.833.171-.118 3.22 3.686 2.316.236.337.715.171.715.171 1.902 2.086 3.624-4.236 3.027-2.77 1.013.508 1.964.112 2.853-.284.889-.396 1.666-.786 2.02-1.808.375.044.755-.017 1.094-.177.338-.16.62-.41.808-.721 0-.118.063-.172.118-.284 1.188-.68.951-3.055.119-3.953v-.017z" fill="#B39141"/></g><defs><clipPath id="fclip0"><path fill="#fff" d="M0 0h24v24H0z"/></clipPath></defs></svg><svg viewBox="0 0 502.664 502.664" id="icon" xmlns="http://www.w3.org/2000/svg"><g fill="#010002"><path d="M153.821 358.226L0 274.337v-46.463l153.821-83.414v54.574L46.636 250.523l107.185 53.431v54.272zM180.094 387.584L282.103 115.08h32.227L212.084 387.584h-31.99zM348.843 358.226v-54.272l107.164-52.999-107.164-52.59v-53.927l153.821 83.522v46.183l-153.821 84.083z"/></g></svg><svg fill="none" viewBox="0 0 54 54" id="mail" xmlns="http://www.w3.org/2000/svg"><path d="M48.6 19.908V39.15a6.75 6.75 0 01-6.75 6.75h-29.7a6.75 6.75 0 01-6.75-6.75V19.909l20.914 12.306a1.35 1.35 0 001.372 0L48.6 19.908zM41.85 10.8a6.75 6.75 0 016.71 6.003L27 29.484 5.44 16.803a6.75 6.75 0 016.71-6.003h29.7z" fill="#B39141"/></svg><svg fill="none" viewBox="0 0 36 37" id="molniya" xmlns="http://www.w3.org/2000/svg"><g clip-path="url(#iclip0)"><path d="M20.328 6.54l-6.875 11.908 3.247 1.875-5.625 9.743 15.078-8.616-4.33-2.5 9.33-6.16-10.825-6.25z" fill="#B39141"/></g><defs><clipPath id="iclip0"><path fill="#fff" transform="rotate(30 7 26.124)" d="M0 0h25.395v27.971H0z"/></clipPath></defs></svg><svg fill="none" viewBox="0 0 24 24" id="sex" xmlns="http://www.w3.org/2000/svg"><g clip-path="url(#jclip0)"><path d="M1.51 0C.075.112 0 1.035 0 1.402v4.392c-.002.376.147.738.416 1.006a1.48 1.48 0 001.02.431 1.48 1.48 0 001.019-.43c.268-.27.418-.63.415-1.007v-.992l1.74 1.622c-1.89 2.808-1.447 6.648 1.095 9.159a7.495 7.495 0 002.43 1.585 7.633 7.633 0 002.865.555 7.953 7.953 0 002.443-.406 8.588 8.588 0 01-3.123-2.29 1.044 1.044 0 00-.19-.22 4.5 4.5 0 01-2.373-1.256 4.456 4.456 0 01-1.242-2.295 4.393 4.393 0 01.267-2.583 4.513 4.513 0 011.685-2.007 4.671 4.671 0 012.54-.76 4.671 4.671 0 012.398.665 4.526 4.526 0 011.688 1.791 4.397 4.397 0 01-.385 4.671c.574.367 1.245.56 1.93.557h.11c.283.001.564-.037.835-.113.115-.038.19-.038.265-.073a7.185 7.185 0 00.528-4.335 7.287 7.287 0 00-2.086-3.862 7.567 7.567 0 00-4.637-2.078 7.62 7.62 0 00-4.924 1.306L5.18 2.99l.87.15c.42.005.824-.153 1.124-.44.3-.286.471-.677.476-1.087a1.527 1.527 0 00-.45-1.098A1.6 1.6 0 006.084.05L1.51 0z" fill="#B39141"/><path d="M13.57 18.646h1.775v-1.588a7.473 7.473 0 01-2.99-1.237 7.271 7.271 0 01-2.156-2.37 7.063 7.063 0 01-.39-6.177 3.354 3.354 0 011.21-.22 3.58 3.58 0 011.85.513 4.146 4.146 0 00-.754 2.403c.002.8.226 1.584.65 2.268a4.473 4.473 0 001.751 1.618 4.605 4.605 0 004.64-.241 4.441 4.441 0 001.566-1.791 4.322 4.322 0 00-.482-4.515 4.504 4.504 0 00-1.91-1.438 8.763 8.763 0 00-1.21-1.44 9.033 9.033 0 00-2.095-1.515 7.417 7.417 0 011.581-.146 7.481 7.481 0 014.923 1.848 7.158 7.158 0 012.405 4.586 7.089 7.089 0 01-1.343 4.983 7.396 7.396 0 01-4.403 2.837v1.66h1.581a1.461 1.461 0 011.04.398 1.397 1.397 0 01.431 1.005 1.41 1.41 0 01-.427.985c-.268.261-.63.411-1.008.417h-1.582v1.109a1.418 1.418 0 01-.443.996 1.485 1.485 0 01-1.031.406 1.432 1.432 0 01-1-.415 1.368 1.368 0 01-.396-.987v-1.109H13.57c-.386 0-.756-.15-1.03-.416a1.405 1.405 0 01-.425-1.006c0-.377.153-.738.426-1.005a1.473 1.473 0 011.029-.416z" fill="#C4C4C4"/></g><defs><clipPath id="jclip0"><path fill="#fff" d="M0 0h24v24H0z"/></clipPath></defs></svg></svg>